<?xml version="1.0" standalone="no"?><!DOCTYPE svg PUBLIC "-//W3C//DTD SVG 1.1//EN" "http://www.w3.org/Graphics/SVG/1.1/DTD/svg11.dtd"><svg t="1658728279433" class="icon" viewBox="0 0 1027 1024" version="1.1" xmlns="http://www.w3.org/2000/svg" p-id="8258" xmlns:xlink="http://www.w3.org/1999/xlink" width="200.5859375" height="200"><defs><style type="text/css"></style></defs><path d="M1024 511.999502c0 282.773475-229.226026 512.000498-512.000498 512.000498C229.227023 1024 0 794.772977 0 511.999502 0 229.227023 229.227023 0 511.999502 0c282.773475 0 512.000498 229.227023 512.000498 511.999502z" fill="#E2E5E8" p-id="8259"></path><path d="M955.43227 247.959758c-13.079319-25.55352-143.307264-179.651222-435.878266-183.364671v-0.344928h-4.618634c-0.992912 0-1.922022 0.085733-2.935868 0.085734s-1.94196-0.085733-2.934872-0.085734h-4.618634v0.344928C211.874994 68.308536 81.646052 222.407235 68.56773 247.959758c-14.503888 28.315928 22.791112 35.913297 22.791112 35.913297h841.283313c-0.000997 0 37.293006-7.596373 22.790115-35.913297z" fill="#E56760" p-id="8260"></path><path d="M933.201416 289.398868H91.358842c-1.963892-0.280129-22.424253-4.596703-29.373638-19.078659-3.560924-7.402974-2.99967-15.776928 1.661831-24.8846C82.012911 209.565179 216.903354 64.574152 498.92118 59.157001v-0.085733l10.14345-0.345924 4.165045 0.042866 11.849145-0.042866v0.431657c282.017825 5.417151 416.907272 150.408178 435.274145 186.277611 4.662498 9.107672 5.222755 17.481626 1.661831 24.8846-6.949385 14.481956-27.409746 18.79853-28.272064 18.970994l-0.541316 0.108662zM508.697771 69.797904l-4.186977 0.323992C188.997152 74.114478 74.394607 248.715408 73.488425 250.485901c-3.043534 5.95747-3.560924 10.878165-1.554166 15.064145 4.532901 9.409732 20.374628 12.884923 20.52516 12.905858l839.577618-0.107665c4.81303-1.122509 16.382046-5.222755 20.028704-12.84106 2.007755-4.166042 1.489368-9.086737-1.554166-15.021278-0.906181-1.769496-115.508727-176.371423-431.022369-180.364005l-5.461014-0.323992-2.02869 0.064798-3.301731-0.064798z" fill="#1D305B" p-id="8261"></path><path d="M561.725835 187.874644c0 27.452613-22.272724 49.725337-49.726333 49.725337-27.452613 0-49.725337-22.272724-49.725337-49.725337 0-27.474545 22.272724-49.726334 49.725337-49.726334 27.45361 0.000997 49.726334 22.251789 49.726333 49.726334z" fill="#FFFFFF" p-id="8262"></path><path d="M511.999502 243.125793c-30.474214 0-55.250153-24.776935-55.250153-55.251149 0-30.474214 24.776935-55.25115 55.250153-55.25115 30.474214 0 55.252146 24.776935 55.252146 55.25115 0 30.474214-24.777932 55.25115-55.252146 55.251149z m0-99.45167c-24.366213 0-44.200521 19.834308-44.200521 44.200521s19.834308 44.200521 44.200521 44.200521 44.201518-19.834308 44.201517-44.200521-19.835305-44.200521-44.201517-44.200521z" fill="#1D305B" p-id="8263"></path><path d="M118.983918 283.873055h779.038915v569.775797H118.983918z" fill="#FFFFFF" p-id="8264"></path><path d="M903.547649 859.174665H113.459102V278.348239h790.089544v580.826426z m-779.038915-11.049632h767.988286V289.398868H124.508734v558.726165z" fill="#1D305B" p-id="8265"></path><path d="M80.308213 853.649849h856.390325v66.301778H80.308213z" fill="#7B94A9" p-id="8266"></path><path d="M942.223354 925.475446H74.783397v-77.35141h867.440954v77.35141zM85.833029 914.425814h845.340693v-55.251149H85.833029v55.251149z" fill="#1D305B" p-id="8267"></path><path d="M270.92433 329.671605h106.811778v57.107376H270.92433z" fill="#8DD1E3" p-id="8268"></path><path d="M383.260924 392.303797H265.399514v-68.157007h117.86141v68.157007z m-106.811778-11.050628h95.761149v-46.056748h-95.761149v46.056748z" fill="#1D305B" p-id="8269"></path><path d="M455.086521 329.671605h106.811778v57.107376H455.086521z" fill="#8DD1E3" p-id="8270"></path><path d="M567.423115 392.303797H449.561705v-68.157007h117.862407v68.157007z m-106.810781-11.050628h95.761149v-46.056748h-95.761149v46.056748z" fill="#1D305B" p-id="8271"></path><path d="M639.249709 329.671605h106.811777v57.107376H639.249709z" fill="#8DD1E3" p-id="8272"></path><path d="M751.586302 392.303797H633.723896v-68.157007h117.862406v68.157007zM644.774525 381.253169h95.762146v-46.056748h-95.762146v46.056748z" fill="#1D305B" p-id="8273"></path><path d="M313.268624 467.798981h390.447571v385.850868H313.268624z" fill="#BBBBBA" p-id="8274"></path><path d="M709.241011 859.174665H307.743809V462.274165h401.497202v396.9005z m-390.446574-11.049632h379.397939V473.323797H318.794437v374.801236z" fill="#1D305B" p-id="8275"></path><path d="M782.902897 875.750109l-79.186702-22.10026V467.798981l79.186702-22.100261z" fill="#6ABA8D" p-id="8276"></path><path d="M782.902897 881.274925c-0.496456 0-0.992912-0.063802-1.489368-0.193398l-79.186701-22.100261a5.549738 5.549738 0 0 1-4.035449-5.331417V467.798981a5.547745 5.547745 0 0 1 4.035449-5.330421l79.186701-22.10026c1.682766-0.453589 3.453259-0.107665 4.834962 0.928113s2.180219 2.676675 2.180219 4.403304v430.051389a5.498896 5.498896 0 0 1-2.180219 4.403304 5.588617 5.588617 0 0 1-3.345594 1.120515z m-73.661886-31.81305l68.136073 19.01386V452.972098l-68.136073 19.01386v377.475917z" fill="#1D305B" p-id="8277"></path><path d="M234.08292 875.750109l79.185704-22.10026V467.798981l-79.185704-22.100261z" fill="#6ABA8D" p-id="8278"></path><path d="M234.08292 881.274925a5.575658 5.575658 0 0 1-3.344597-1.121512 5.498896 5.498896 0 0 1-2.180219-4.403304V445.69872c0-1.72663 0.798516-3.366529 2.180219-4.403304a5.599583 5.599583 0 0 1 4.833964-0.928113l79.186702 22.10026a5.547745 5.547745 0 0 1 4.035448 5.330421v385.850868a5.549738 5.549738 0 0 1-4.035448 5.331417l-79.186702 22.100261c-0.496456 0.129597-0.992912 0.194395-1.489367 0.194395z m5.525813-428.302827v415.504634l68.136072-19.01386v-377.475917l-68.136072-19.014857z" fill="#1D305B" p-id="8279"></path><path d="M588.617194 657.853843c0 6.927453-5.611546 12.538999-12.539 12.539H440.907622c-6.906518 0-12.518064-5.611546-12.518064-12.539V522.704206c0-6.927453 5.611546-12.538999 12.518064-12.538999H576.078194c6.927453 0 12.538999 5.611546 12.539 12.538999V657.853843z" fill="#E5D970" p-id="8280"></path><path d="M576.078194 675.918655H440.907622c-9.949055 0-18.04288-8.092828-18.04288-18.063815V522.704206c0-9.970987 8.093825-18.063815 18.04288-18.063815H576.078194c9.970987 0 18.063815 8.092828 18.063815 18.063815V657.853843c0 9.970987-8.092828 18.064812-18.063815 18.064812zM440.907622 515.690023c-3.862985 0-6.993249 3.151199-6.993248 7.014183V657.853843c0 3.862985 3.129267 7.014183 6.993248 7.014184H576.078194c3.862985 0 7.014183-3.151199 7.014184-7.014184V522.704206c0-3.862985-3.151199-7.014183-7.014184-7.014183H440.907622z" fill="#1D305B" p-id="8281"></path><path d="M494.215815 514.761909h28.554187v39.604816h-28.554187z" fill="#E56760" p-id="8282"></path><path d="M494.215815 841.11085c0 6.927453-5.611546 12.538999-12.518064 12.538999H346.527179c-6.927453 0-12.538999-5.611546-12.539-12.538999V705.939281c0-6.906518 5.611546-12.518064 12.539-12.518065h135.170572c6.906518 0 12.518064 5.611546 12.518064 12.518065v135.171569z" fill="#E5D970" p-id="8283"></path><path d="M481.697751 859.174665H346.527179c-9.970987 0-18.064812-8.092828-18.064812-18.063815V705.939281c0-9.949055 8.093825-18.04288 18.064812-18.042881h135.170572c9.949055 0 18.04288 8.092828 18.04288 18.042881v135.171569c0 9.970987-8.092828 18.063815-18.04288 18.063815zM346.527179 698.947029c-3.862985 0-7.014183 3.129267-7.014184 6.992252v135.171569c0 3.862985 3.151199 7.014183 7.014184 7.014183h135.170572c3.862985 0 6.993249-3.151199 6.993248-7.014183V705.939281a6.991255 6.991255 0 0 0-6.993248-6.992252H346.527179z" fill="#1D305B" p-id="8284"></path><path d="M399.857303 697.996984h28.532255v39.62575h-28.532255z" fill="#E56760" p-id="8285"></path><path d="M682.997637 841.11085c0 6.927453-5.611546 12.538999-12.539996 12.538999H535.309001c-6.927453 0-12.538999-5.611546-12.538999-12.538999V705.939281c0-6.906518 5.611546-12.518064 12.538999-12.518065h135.14864c6.92845 0 12.539996 5.611546 12.539996 12.518065v135.171569z" fill="#E5D970" p-id="8286"></path><path d="M670.457641 859.174665H535.309001c-9.970987 0-18.063815-8.092828-18.063815-18.063815V705.939281c0-9.949055 8.092828-18.04288 18.063815-18.042881h135.14864c9.970987 0 18.064812 8.092828 18.064812 18.042881v135.171569c0 9.970987-8.093825 18.063815-18.064812 18.063815zM535.309001 698.947029c-3.862985 0-7.014183 3.129267-7.014184 6.992252v135.171569c0 3.862985 3.151199 7.014183 7.014184 7.014183h135.14864c3.863982 0 7.014183-3.151199 7.014183-7.014183V705.939281c0-3.862985-3.150202-6.992252-7.014183-6.992252H535.309001z" fill="#1D305B" p-id="8287"></path><path d="M588.617194 697.996984h28.532254v39.62575h-28.532254z" fill="#E56760" p-id="8288"></path></svg>