<?xml version="1.0" standalone="no"?><!DOCTYPE svg PUBLIC "-//W3C//DTD SVG 1.1//EN" "http://www.w3.org/Graphics/SVG/1.1/DTD/svg11.dtd"><svg t="1658728286820" class="icon" viewBox="0 0 1028 1024" version="1.1" xmlns="http://www.w3.org/2000/svg" p-id="8434" xmlns:xlink="http://www.w3.org/1999/xlink" width="200.78125" height="200"><defs><style type="text/css"></style></defs><path d="M736.104 34.694H872.04v222.243l-135.936-81.993z" fill="#D2D5DE" p-id="8435"></path><path d="M872.04 265.568c-1.552 0-3.103-0.403-4.451-1.247l-135.937-81.993a8.584 8.584 0 0 1-4.18-7.384V34.694c0-4.755 3.877-8.631 8.631-8.631H872.04c4.753 0 8.631 3.875 8.631 8.631v222.243c0 3.103-1.688 6.003-4.385 7.52a8.695 8.695 0 0 1-4.246 1.111z m-127.306-95.512l118.675 71.608V43.325H744.734v126.731z" fill="#040000" p-id="8436"></path><path d="M83.529 322.376v627.189h860.255V322.376L521.813 51.956z" fill="#FFFFFF" p-id="8437"></path><path d="M943.784 958.196H83.529c-4.754 0-8.631-3.877-8.631-8.631V322.376c0-3 1.55-5.763 4.112-7.349L517.298 44.604c2.764-1.72 6.337-1.72 9.17 0.069l421.969 270.421a8.672 8.672 0 0 1 3.979 7.282v627.189c-0.001 4.754-3.879 8.631-8.632 8.631zM92.16 940.935h842.994V327.098L521.715 62.136 92.16 327.199v613.736z" fill="#222323" p-id="8438"></path><path d="M1011.011 319.511L523.096 10.89c-2.9-1.854-6.204-2.359-9.44-2.225-3.236-0.134-6.473 0.371-9.44 2.225L16.302 319.511c-7.619 4.822-9.979 14.834-5.191 22.319l18.138 28.726c4.788 7.518 14.768 9.709 22.386 4.855l462.02-292.237 462.022 292.237c7.619 4.854 17.665 2.663 22.386-4.855l18.204-28.726c4.721-7.485 2.43-17.497-5.256-22.319z" fill="#F6D57D" p-id="8439"></path><path d="M984.511 386.638c-4.788 0-9.439-1.383-13.485-3.944L513.655 93.39 56.253 382.693c-11.159 7.181-27.173 3.674-34.287-7.485L3.828 346.45C0.322 340.954-0.825 334.38 0.592 327.973c1.449-6.54 5.394-12.137 11.092-15.745L499.598 3.607C503.406 1.215 507.823 0 512.678 0c6.911 0 11.328 1.215 15.07 3.607l487.881 308.621a24.807 24.807 0 0 1 11.091 15.611c1.484 6.438 0.337 13.047-3.134 18.61l-18.241 28.724c-4.483 7.149-12.304 11.465-20.834 11.465zM513.655 72.959l466.64 295.169c3.474 2.225 8.363 1.213 10.452-2.158l18.24-28.76a7.36 7.36 0 0 0 0.91-5.528 7.734 7.734 0 0 0-3.474-4.855L518.478 18.172c-0.979-0.606-2.227-0.911-3.845-0.911-4.113 0-5.191 0.54-5.832 0.945L20.92 326.793c-1.787 1.147-3.034 2.9-3.472 4.924-0.439 1.92-0.101 3.843 0.944 5.461l18.138 28.758c2.125 3.304 6.979 4.382 10.452 2.192L513.655 72.959z" fill="#040000" p-id="8440"></path><path d="M9.694 948.486h1010.081" fill="#D2D5DE" p-id="8441"></path><path d="M1019.775 957.117H9.694c-4.754 0-8.631-3.877-8.631-8.631 0-4.753 3.877-8.631 8.631-8.631h1010.082c4.752 0 8.631 3.878 8.631 8.631-0.001 4.754-3.88 8.631-8.632 8.631z" fill="#040000" p-id="8442"></path><path d="M582.702 333.875c0 38.164-30.881 69.047-69.047 69.047-38.097 0-69.047-30.883-69.047-69.047 0-38.099 30.95-69.047 69.047-69.047 38.166 0 69.047 30.948 69.047 69.047z" fill="#EA5150" p-id="8443"></path><path d="M513.655 411.553c-42.816 0-77.678-34.862-77.678-77.678 0-42.818 34.862-77.678 77.678-77.678 42.818 0 77.678 34.86 77.678 77.678 0 42.815-34.859 77.678-77.678 77.678z m0-138.095c-33.309 0-60.416 27.105-60.416 60.417 0 33.309 27.107 60.416 60.416 60.416 33.311 0 60.416-27.107 60.416-60.416 0-33.311-27.105-60.417-60.416-60.417z" fill="#040000" p-id="8444"></path><path d="M844.529 948.486V512.763c0-10.789-8.768-19.555-19.556-19.555H202.405c-10.856 0-19.623 8.767-19.623 19.555v435.724h661.747z" fill="#D2D5DE" p-id="8445"></path><path d="M844.529 957.117H182.783c-4.753 0-8.631-3.877-8.631-8.631V512.763c0-15.542 12.677-28.186 28.253-28.186h622.568c15.542 0 28.187 12.644 28.187 28.186v435.724c0 4.753-3.878 8.63-8.631 8.63z m-653.115-17.262h644.485V512.763c0-6.035-4.89-10.924-10.925-10.924H202.405c-6.069 0-10.992 4.889-10.992 10.924v427.092z" fill="#040000" p-id="8446"></path><path d="M187.098 608.274h653.116" fill="#D2D5DE" p-id="8447"></path><path d="M840.214 616.905H187.098c-4.753 0-8.631-3.877-8.631-8.631 0-4.753 3.877-8.631 8.631-8.631h653.116c4.753 0 8.631 3.878 8.631 8.631 0 4.754-3.878 8.631-8.631 8.631z" fill="#040000" p-id="8448"></path><path d="M187.098 691.718h653.116" fill="#D2D5DE" p-id="8449"></path><path d="M840.214 700.349H187.098c-4.753 0-8.631-3.877-8.631-8.631 0-4.753 3.877-8.631 8.631-8.631h653.116c4.753 0 8.631 3.878 8.631 8.631 0 4.754-3.878 8.631-8.631 8.631z" fill="#040000" p-id="8450"></path><path d="M187.098 775.127h653.116" fill="#D2D5DE" p-id="8451"></path><path d="M840.214 783.758H187.098c-4.753 0-8.631-3.878-8.631-8.631 0-4.754 3.877-8.631 8.631-8.631h653.116c4.753 0 8.631 3.877 8.631 8.631 0 4.753-3.878 8.631-8.631 8.631z" fill="#040000" p-id="8452"></path><path d="M187.098 858.536h653.116" fill="#D2D5DE" p-id="8453"></path><path d="M840.214 867.167H187.098c-4.753 0-8.631-3.876-8.631-8.631 0-4.754 3.877-8.631 8.631-8.631h653.116c4.753 0 8.631 3.877 8.631 8.631 0 4.755-3.878 8.631-8.631 8.631z" fill="#040000" p-id="8454"></path></svg>