<?xml version="1.0" standalone="no"?><!DOCTYPE svg PUBLIC "-//W3C//DTD SVG 1.1//EN" "http://www.w3.org/Graphics/SVG/1.1/DTD/svg11.dtd"><svg t="1658728230338" class="icon" viewBox="0 0 1024 1024" version="1.1" xmlns="http://www.w3.org/2000/svg" p-id="8100" xmlns:xlink="http://www.w3.org/1999/xlink" width="200" height="200"><defs><style type="text/css"></style></defs><path d="M855.87 590.58l80.95 214.18-255.38 148.4-446.17-257.59 255.37-148.41z" fill="#A06944" opacity=".3" p-id="8101"></path><path d="M88.52 145.63l47.19-27.42 288.92-54.39-47.2 27.43z" fill="#B27850" p-id="8102"></path><path d="M377.43 91.25l303.69 396.52-1.34 472.41-592.6-342.14 1.34-472.41z" fill="#FDCDAA" p-id="8103"></path><path d="M377.43 91.25l47.2-27.43 303.69 396.53-47.2 27.42z" fill="#EFA875" p-id="8104"></path><path d="M681.12 487.77l47.2-27.42-1.34 472.4-47.2 27.43z" fill="#BA825B" p-id="8105"></path><path d="M548.44 604.33l-0.77 272.88-367.85-212.38 0.77-272.88z" fill="#6A56CD" p-id="8106"></path><path d="M549.87 639.66l-0.17 60.04-370.55-213.94 0.17-60.03z" fill="#2C4B89" opacity=".2" p-id="8107"></path><path d="M549.87 545.92l-0.17 60.03-370.55-213.93 0.17-60.04zM549.87 606.18l-0.17 60.04-370.55-213.94 0.17-60.03z" fill="#9AADDD" p-id="8108"></path><path d="M337.74 645.15l-0.32 113.61-86.5-49.94 0.32-113.61zM478.36 725.5l-0.32 113.62-86.5-49.94 0.32-113.62z" fill="#A0633A" opacity=".3" p-id="8109"></path><path d="M317.65 631.76l-0.32 113.61-86.5-49.94 0.32-113.62zM458.27 712.11l-0.32 113.61-86.5-49.94 0.32-113.61z" fill="#FFA05E" p-id="8110"></path><path d="M465.07 313.57c18.38 10.61 33.21 36.3 33.15 57.42-0.06 21.08-14.99 29.58-33.37 18.97-18.34-10.59-33.21-36.3-33.15-57.38 0.06-21.12 15.02-29.6 33.37-19.01zM558.73 397.64c3.71 2.14 6.7 7.32 6.69 11.58-0.01 4.25-3.02 5.97-6.73 3.83-3.7-2.14-6.7-7.32-6.69-11.57 0.01-4.27 3.03-5.98 6.73-3.84z" fill="#FFFFFF" p-id="8111"></path><path d="M565.44 426.86c5.76 3.32 10.4 11.37 10.39 17.99-0.02 6.6-4.69 9.27-10.45 5.94-5.75-3.32-10.4-11.37-10.39-17.97 0.01-6.62 4.7-9.28 10.45-5.96z" fill="#FFFFFF" p-id="8112"></path></svg>